<mxfile host="app.diagrams.net" agent="Mozilla/5.0 (Macintosh; Intel Mac OS X 10_15_7) AppleWebKit/537.36 (KHTML, like Gecko) Chrome/126.0.0.0 Whale/3.27.254.15 Safari/537.36" version="24.7.17">
  <diagram name="페이지-1" id="8g5Zn0wMJFjncriXSSx3">
    <mxGraphModel dx="524" dy="995" grid="1" gridSize="10" guides="1" tooltips="1" connect="1" arrows="1" fold="1" page="1" pageScale="1" pageWidth="1169" pageHeight="827" math="0" shadow="0">
      <root>
        <mxCell id="0" />
        <mxCell id="1" parent="0" />
        <mxCell id="pKS4B4EWEE2jMQGI_RAB-51" style="edgeStyle=orthogonalEdgeStyle;rounded=0;orthogonalLoop=1;jettySize=auto;html=1;entryX=0;entryY=0.5;entryDx=0;entryDy=0;strokeColor=#000000;fontColor=#000000;" parent="1" source="pKS4B4EWEE2jMQGI_RAB-52" target="pKS4B4EWEE2jMQGI_RAB-54" edge="1">
          <mxGeometry relative="1" as="geometry" />
        </mxCell>
        <mxCell id="pKS4B4EWEE2jMQGI_RAB-52" value="&lt;div&gt;&lt;font&gt;input-topic&lt;/font&gt;&lt;/div&gt;" style="rounded=0;whiteSpace=wrap;html=1;strokeColor=#000000;fontColor=#000000;" parent="1" vertex="1">
          <mxGeometry x="80" y="160" width="120" height="40" as="geometry" />
        </mxCell>
        <mxCell id="FndXXYRwrVGlGgqWlBvR-2" style="edgeStyle=orthogonalEdgeStyle;rounded=0;orthogonalLoop=1;jettySize=auto;html=1;entryX=0;entryY=0.5;entryDx=0;entryDy=0;" edge="1" parent="1" source="pKS4B4EWEE2jMQGI_RAB-54" target="FndXXYRwrVGlGgqWlBvR-1">
          <mxGeometry relative="1" as="geometry" />
        </mxCell>
        <mxCell id="pKS4B4EWEE2jMQGI_RAB-54" value="&lt;font&gt;groupBy&lt;/font&gt;" style="ellipse;whiteSpace=wrap;html=1;strokeColor=#000000;fontColor=#000000;" parent="1" vertex="1">
          <mxGeometry x="320" y="155" width="80" height="50" as="geometry" />
        </mxCell>
        <mxCell id="FndXXYRwrVGlGgqWlBvR-5" style="edgeStyle=orthogonalEdgeStyle;rounded=0;orthogonalLoop=1;jettySize=auto;html=1;entryX=0;entryY=0.5;entryDx=0;entryDy=0;" edge="1" parent="1" source="FndXXYRwrVGlGgqWlBvR-1" target="FndXXYRwrVGlGgqWlBvR-4">
          <mxGeometry relative="1" as="geometry" />
        </mxCell>
        <mxCell id="FndXXYRwrVGlGgqWlBvR-1" value="&lt;font&gt;aggregate&lt;/font&gt;" style="ellipse;whiteSpace=wrap;html=1;strokeColor=#000000;fontColor=#000000;" vertex="1" parent="1">
          <mxGeometry x="520" y="155" width="80" height="50" as="geometry" />
        </mxCell>
        <mxCell id="FndXXYRwrVGlGgqWlBvR-3" value="" style="shape=cylinder3;whiteSpace=wrap;html=1;boundedLbl=1;backgroundOutline=1;size=15;" vertex="1" parent="1">
          <mxGeometry x="570" y="190" width="40" height="50" as="geometry" />
        </mxCell>
        <mxCell id="FndXXYRwrVGlGgqWlBvR-4" value="&lt;div&gt;&lt;font&gt;output-topic&lt;/font&gt;&lt;/div&gt;" style="rounded=0;whiteSpace=wrap;html=1;strokeColor=#000000;fontColor=#000000;" vertex="1" parent="1">
          <mxGeometry x="720" y="160" width="120" height="40" as="geometry" />
        </mxCell>
        <mxCell id="FndXXYRwrVGlGgqWlBvR-10" style="edgeStyle=orthogonalEdgeStyle;rounded=0;orthogonalLoop=1;jettySize=auto;html=1;entryX=0;entryY=0.5;entryDx=0;entryDy=0;" edge="1" parent="1" source="FndXXYRwrVGlGgqWlBvR-6" target="FndXXYRwrVGlGgqWlBvR-7">
          <mxGeometry relative="1" as="geometry" />
        </mxCell>
        <mxCell id="FndXXYRwrVGlGgqWlBvR-6" value="voter1: a&lt;div&gt;(t=1)&lt;/div&gt;" style="text;html=1;align=center;verticalAlign=middle;whiteSpace=wrap;rounded=0;fontColor=#000000;" vertex="1" parent="1">
          <mxGeometry x="80" y="240" width="80" height="30" as="geometry" />
        </mxCell>
        <mxCell id="FndXXYRwrVGlGgqWlBvR-11" style="edgeStyle=orthogonalEdgeStyle;rounded=0;orthogonalLoop=1;jettySize=auto;html=1;" edge="1" parent="1" source="FndXXYRwrVGlGgqWlBvR-7" target="FndXXYRwrVGlGgqWlBvR-8">
          <mxGeometry relative="1" as="geometry" />
        </mxCell>
        <mxCell id="FndXXYRwrVGlGgqWlBvR-7" value="a" style="text;html=1;align=center;verticalAlign=middle;whiteSpace=wrap;rounded=0;fontColor=#000000;" vertex="1" parent="1">
          <mxGeometry x="320" y="240" width="80" height="30" as="geometry" />
        </mxCell>
        <mxCell id="FndXXYRwrVGlGgqWlBvR-12" style="edgeStyle=orthogonalEdgeStyle;rounded=0;orthogonalLoop=1;jettySize=auto;html=1;entryX=0;entryY=0.5;entryDx=0;entryDy=0;" edge="1" parent="1" source="FndXXYRwrVGlGgqWlBvR-8" target="FndXXYRwrVGlGgqWlBvR-9">
          <mxGeometry relative="1" as="geometry" />
        </mxCell>
        <mxCell id="FndXXYRwrVGlGgqWlBvR-8" value="a : 1" style="text;html=1;align=center;verticalAlign=middle;whiteSpace=wrap;rounded=0;fontColor=#000000;strokeColor=default;" vertex="1" parent="1">
          <mxGeometry x="520" y="240" width="80" height="30" as="geometry" />
        </mxCell>
        <mxCell id="FndXXYRwrVGlGgqWlBvR-9" value="a : 1" style="text;html=1;align=center;verticalAlign=middle;whiteSpace=wrap;rounded=0;fontColor=#000000;" vertex="1" parent="1">
          <mxGeometry x="740" y="240" width="80" height="30" as="geometry" />
        </mxCell>
        <mxCell id="FndXXYRwrVGlGgqWlBvR-13" style="edgeStyle=orthogonalEdgeStyle;rounded=0;orthogonalLoop=1;jettySize=auto;html=1;entryX=0;entryY=0.5;entryDx=0;entryDy=0;" edge="1" parent="1" source="FndXXYRwrVGlGgqWlBvR-14" target="FndXXYRwrVGlGgqWlBvR-16">
          <mxGeometry relative="1" as="geometry" />
        </mxCell>
        <mxCell id="FndXXYRwrVGlGgqWlBvR-14" value="voter2: b&lt;div&gt;(t=2)&lt;/div&gt;" style="text;html=1;align=center;verticalAlign=middle;whiteSpace=wrap;rounded=0;fontColor=#000000;" vertex="1" parent="1">
          <mxGeometry x="80" y="280" width="80" height="30" as="geometry" />
        </mxCell>
        <mxCell id="FndXXYRwrVGlGgqWlBvR-15" style="edgeStyle=orthogonalEdgeStyle;rounded=0;orthogonalLoop=1;jettySize=auto;html=1;" edge="1" parent="1" source="FndXXYRwrVGlGgqWlBvR-16" target="FndXXYRwrVGlGgqWlBvR-18">
          <mxGeometry relative="1" as="geometry" />
        </mxCell>
        <mxCell id="FndXXYRwrVGlGgqWlBvR-16" value="b" style="text;html=1;align=center;verticalAlign=middle;whiteSpace=wrap;rounded=0;fontColor=#000000;" vertex="1" parent="1">
          <mxGeometry x="320" y="280" width="80" height="30" as="geometry" />
        </mxCell>
        <mxCell id="FndXXYRwrVGlGgqWlBvR-17" style="edgeStyle=orthogonalEdgeStyle;rounded=0;orthogonalLoop=1;jettySize=auto;html=1;entryX=0;entryY=0.5;entryDx=0;entryDy=0;" edge="1" parent="1" source="FndXXYRwrVGlGgqWlBvR-18" target="FndXXYRwrVGlGgqWlBvR-19">
          <mxGeometry relative="1" as="geometry" />
        </mxCell>
        <mxCell id="FndXXYRwrVGlGgqWlBvR-18" value="a : 1&lt;div&gt;b : 1&lt;/div&gt;" style="text;html=1;align=center;verticalAlign=middle;whiteSpace=wrap;rounded=0;fontColor=#000000;strokeColor=default;" vertex="1" parent="1">
          <mxGeometry x="520" y="280" width="80" height="30" as="geometry" />
        </mxCell>
        <mxCell id="FndXXYRwrVGlGgqWlBvR-19" value="b : 1" style="text;html=1;align=center;verticalAlign=middle;whiteSpace=wrap;rounded=0;fontColor=#000000;" vertex="1" parent="1">
          <mxGeometry x="740" y="280" width="80" height="30" as="geometry" />
        </mxCell>
        <mxCell id="FndXXYRwrVGlGgqWlBvR-20" style="edgeStyle=orthogonalEdgeStyle;rounded=0;orthogonalLoop=1;jettySize=auto;html=1;entryX=0;entryY=0.5;entryDx=0;entryDy=0;" edge="1" parent="1" source="FndXXYRwrVGlGgqWlBvR-21" target="FndXXYRwrVGlGgqWlBvR-23">
          <mxGeometry relative="1" as="geometry" />
        </mxCell>
        <mxCell id="FndXXYRwrVGlGgqWlBvR-21" value="voter3: c&lt;div&gt;(t=3)&lt;/div&gt;" style="text;html=1;align=center;verticalAlign=middle;whiteSpace=wrap;rounded=0;fontColor=#000000;" vertex="1" parent="1">
          <mxGeometry x="80" y="325" width="80" height="30" as="geometry" />
        </mxCell>
        <mxCell id="FndXXYRwrVGlGgqWlBvR-22" style="edgeStyle=orthogonalEdgeStyle;rounded=0;orthogonalLoop=1;jettySize=auto;html=1;" edge="1" parent="1" source="FndXXYRwrVGlGgqWlBvR-23" target="FndXXYRwrVGlGgqWlBvR-25">
          <mxGeometry relative="1" as="geometry" />
        </mxCell>
        <mxCell id="FndXXYRwrVGlGgqWlBvR-23" value="c" style="text;html=1;align=center;verticalAlign=middle;whiteSpace=wrap;rounded=0;fontColor=#000000;" vertex="1" parent="1">
          <mxGeometry x="320" y="325" width="80" height="30" as="geometry" />
        </mxCell>
        <mxCell id="FndXXYRwrVGlGgqWlBvR-24" style="edgeStyle=orthogonalEdgeStyle;rounded=0;orthogonalLoop=1;jettySize=auto;html=1;entryX=0;entryY=0.5;entryDx=0;entryDy=0;" edge="1" parent="1" source="FndXXYRwrVGlGgqWlBvR-25" target="FndXXYRwrVGlGgqWlBvR-26">
          <mxGeometry relative="1" as="geometry" />
        </mxCell>
        <mxCell id="FndXXYRwrVGlGgqWlBvR-25" value="a : 1&lt;div&gt;b : 1&lt;/div&gt;&lt;div&gt;c : 1&lt;/div&gt;" style="text;html=1;align=center;verticalAlign=middle;whiteSpace=wrap;rounded=0;fontColor=#000000;strokeColor=default;" vertex="1" parent="1">
          <mxGeometry x="520" y="320" width="80" height="40" as="geometry" />
        </mxCell>
        <mxCell id="FndXXYRwrVGlGgqWlBvR-26" value="c : 1" style="text;html=1;align=center;verticalAlign=middle;whiteSpace=wrap;rounded=0;fontColor=#000000;" vertex="1" parent="1">
          <mxGeometry x="740" y="325" width="80" height="30" as="geometry" />
        </mxCell>
        <mxCell id="FndXXYRwrVGlGgqWlBvR-27" style="edgeStyle=orthogonalEdgeStyle;rounded=0;orthogonalLoop=1;jettySize=auto;html=1;entryX=0;entryY=0.5;entryDx=0;entryDy=0;" edge="1" parent="1" source="FndXXYRwrVGlGgqWlBvR-28" target="FndXXYRwrVGlGgqWlBvR-30">
          <mxGeometry relative="1" as="geometry" />
        </mxCell>
        <mxCell id="FndXXYRwrVGlGgqWlBvR-28" value="voter4: a&lt;div&gt;(t=4)&lt;/div&gt;" style="text;html=1;align=center;verticalAlign=middle;whiteSpace=wrap;rounded=0;fontColor=#000000;" vertex="1" parent="1">
          <mxGeometry x="80" y="380" width="80" height="30" as="geometry" />
        </mxCell>
        <mxCell id="FndXXYRwrVGlGgqWlBvR-29" style="edgeStyle=orthogonalEdgeStyle;rounded=0;orthogonalLoop=1;jettySize=auto;html=1;" edge="1" parent="1" source="FndXXYRwrVGlGgqWlBvR-30" target="FndXXYRwrVGlGgqWlBvR-32">
          <mxGeometry relative="1" as="geometry" />
        </mxCell>
        <mxCell id="FndXXYRwrVGlGgqWlBvR-30" value="a" style="text;html=1;align=center;verticalAlign=middle;whiteSpace=wrap;rounded=0;fontColor=#000000;" vertex="1" parent="1">
          <mxGeometry x="320" y="380" width="80" height="30" as="geometry" />
        </mxCell>
        <mxCell id="FndXXYRwrVGlGgqWlBvR-31" style="edgeStyle=orthogonalEdgeStyle;rounded=0;orthogonalLoop=1;jettySize=auto;html=1;entryX=0;entryY=0.5;entryDx=0;entryDy=0;" edge="1" parent="1" source="FndXXYRwrVGlGgqWlBvR-32" target="FndXXYRwrVGlGgqWlBvR-33">
          <mxGeometry relative="1" as="geometry" />
        </mxCell>
        <mxCell id="FndXXYRwrVGlGgqWlBvR-32" value="a : 2&lt;div&gt;b : 1&lt;/div&gt;&lt;div&gt;c : 1&lt;/div&gt;" style="text;html=1;align=center;verticalAlign=middle;whiteSpace=wrap;rounded=0;fontColor=#000000;strokeColor=default;" vertex="1" parent="1">
          <mxGeometry x="520" y="370" width="80" height="50" as="geometry" />
        </mxCell>
        <mxCell id="FndXXYRwrVGlGgqWlBvR-33" value="a : 2" style="text;html=1;align=center;verticalAlign=middle;whiteSpace=wrap;rounded=0;fontColor=#000000;" vertex="1" parent="1">
          <mxGeometry x="740" y="380" width="80" height="30" as="geometry" />
        </mxCell>
        <mxCell id="FndXXYRwrVGlGgqWlBvR-34" style="edgeStyle=orthogonalEdgeStyle;rounded=0;orthogonalLoop=1;jettySize=auto;html=1;entryX=0;entryY=0.5;entryDx=0;entryDy=0;" edge="1" parent="1" source="FndXXYRwrVGlGgqWlBvR-35" target="FndXXYRwrVGlGgqWlBvR-37">
          <mxGeometry relative="1" as="geometry" />
        </mxCell>
        <mxCell id="FndXXYRwrVGlGgqWlBvR-35" value="voter5: a&lt;div&gt;(t=10)&lt;/div&gt;" style="text;html=1;align=center;verticalAlign=middle;whiteSpace=wrap;rounded=0;fontColor=#000000;" vertex="1" parent="1">
          <mxGeometry x="80" y="440" width="80" height="30" as="geometry" />
        </mxCell>
        <mxCell id="FndXXYRwrVGlGgqWlBvR-36" style="edgeStyle=orthogonalEdgeStyle;rounded=0;orthogonalLoop=1;jettySize=auto;html=1;" edge="1" parent="1" source="FndXXYRwrVGlGgqWlBvR-37" target="FndXXYRwrVGlGgqWlBvR-39">
          <mxGeometry relative="1" as="geometry" />
        </mxCell>
        <mxCell id="FndXXYRwrVGlGgqWlBvR-37" value="a" style="text;html=1;align=center;verticalAlign=middle;whiteSpace=wrap;rounded=0;fontColor=#000000;" vertex="1" parent="1">
          <mxGeometry x="320" y="440" width="80" height="30" as="geometry" />
        </mxCell>
        <mxCell id="FndXXYRwrVGlGgqWlBvR-38" style="edgeStyle=orthogonalEdgeStyle;rounded=0;orthogonalLoop=1;jettySize=auto;html=1;entryX=0;entryY=0.5;entryDx=0;entryDy=0;" edge="1" parent="1" source="FndXXYRwrVGlGgqWlBvR-39" target="FndXXYRwrVGlGgqWlBvR-40">
          <mxGeometry relative="1" as="geometry" />
        </mxCell>
        <mxCell id="FndXXYRwrVGlGgqWlBvR-39" value="a : 3&lt;div&gt;b : 1&lt;/div&gt;&lt;div&gt;c : 1&lt;/div&gt;" style="text;html=1;align=center;verticalAlign=middle;whiteSpace=wrap;rounded=0;fontColor=#000000;strokeColor=default;" vertex="1" parent="1">
          <mxGeometry x="520" y="430" width="80" height="50" as="geometry" />
        </mxCell>
        <mxCell id="FndXXYRwrVGlGgqWlBvR-40" value="a : 3" style="text;html=1;align=center;verticalAlign=middle;whiteSpace=wrap;rounded=0;fontColor=#000000;" vertex="1" parent="1">
          <mxGeometry x="740" y="440" width="80" height="30" as="geometry" />
        </mxCell>
        <mxCell id="FndXXYRwrVGlGgqWlBvR-41" style="edgeStyle=orthogonalEdgeStyle;rounded=0;orthogonalLoop=1;jettySize=auto;html=1;entryX=0;entryY=0.5;entryDx=0;entryDy=0;" edge="1" parent="1" source="FndXXYRwrVGlGgqWlBvR-42" target="FndXXYRwrVGlGgqWlBvR-44">
          <mxGeometry relative="1" as="geometry" />
        </mxCell>
        <mxCell id="FndXXYRwrVGlGgqWlBvR-42" value="voter5: b&lt;div&gt;(t=18)&lt;/div&gt;" style="text;html=1;align=center;verticalAlign=middle;whiteSpace=wrap;rounded=0;fontColor=#000000;" vertex="1" parent="1">
          <mxGeometry x="80" y="500" width="80" height="30" as="geometry" />
        </mxCell>
        <mxCell id="FndXXYRwrVGlGgqWlBvR-43" style="edgeStyle=orthogonalEdgeStyle;rounded=0;orthogonalLoop=1;jettySize=auto;html=1;" edge="1" parent="1" source="FndXXYRwrVGlGgqWlBvR-44" target="FndXXYRwrVGlGgqWlBvR-46">
          <mxGeometry relative="1" as="geometry" />
        </mxCell>
        <mxCell id="FndXXYRwrVGlGgqWlBvR-44" value="b" style="text;html=1;align=center;verticalAlign=middle;whiteSpace=wrap;rounded=0;fontColor=#000000;" vertex="1" parent="1">
          <mxGeometry x="320" y="500" width="80" height="30" as="geometry" />
        </mxCell>
        <mxCell id="FndXXYRwrVGlGgqWlBvR-45" style="edgeStyle=orthogonalEdgeStyle;rounded=0;orthogonalLoop=1;jettySize=auto;html=1;entryX=0;entryY=0.5;entryDx=0;entryDy=0;" edge="1" parent="1" source="FndXXYRwrVGlGgqWlBvR-46" target="FndXXYRwrVGlGgqWlBvR-47">
          <mxGeometry relative="1" as="geometry" />
        </mxCell>
        <mxCell id="FndXXYRwrVGlGgqWlBvR-46" value="a : 3&lt;div&gt;b : 2&lt;/div&gt;&lt;div&gt;c : 1&lt;/div&gt;" style="text;html=1;align=center;verticalAlign=middle;whiteSpace=wrap;rounded=0;fontColor=#000000;strokeColor=default;" vertex="1" parent="1">
          <mxGeometry x="520" y="490" width="80" height="50" as="geometry" />
        </mxCell>
        <mxCell id="FndXXYRwrVGlGgqWlBvR-47" value="b : 2" style="text;html=1;align=center;verticalAlign=middle;whiteSpace=wrap;rounded=0;fontColor=#000000;" vertex="1" parent="1">
          <mxGeometry x="740" y="500" width="80" height="30" as="geometry" />
        </mxCell>
        <mxCell id="FndXXYRwrVGlGgqWlBvR-48" style="edgeStyle=orthogonalEdgeStyle;rounded=0;orthogonalLoop=1;jettySize=auto;html=1;entryX=0;entryY=0.5;entryDx=0;entryDy=0;" edge="1" parent="1" source="FndXXYRwrVGlGgqWlBvR-49" target="FndXXYRwrVGlGgqWlBvR-51">
          <mxGeometry relative="1" as="geometry" />
        </mxCell>
        <mxCell id="FndXXYRwrVGlGgqWlBvR-49" value="voter6: c&lt;div&gt;(t=30)&lt;/div&gt;" style="text;html=1;align=center;verticalAlign=middle;whiteSpace=wrap;rounded=0;fontColor=#000000;" vertex="1" parent="1">
          <mxGeometry x="80" y="560" width="80" height="30" as="geometry" />
        </mxCell>
        <mxCell id="FndXXYRwrVGlGgqWlBvR-50" style="edgeStyle=orthogonalEdgeStyle;rounded=0;orthogonalLoop=1;jettySize=auto;html=1;" edge="1" parent="1" source="FndXXYRwrVGlGgqWlBvR-51" target="FndXXYRwrVGlGgqWlBvR-53">
          <mxGeometry relative="1" as="geometry" />
        </mxCell>
        <mxCell id="FndXXYRwrVGlGgqWlBvR-51" value="c" style="text;html=1;align=center;verticalAlign=middle;whiteSpace=wrap;rounded=0;fontColor=#000000;" vertex="1" parent="1">
          <mxGeometry x="320" y="560" width="80" height="30" as="geometry" />
        </mxCell>
        <mxCell id="FndXXYRwrVGlGgqWlBvR-52" style="edgeStyle=orthogonalEdgeStyle;rounded=0;orthogonalLoop=1;jettySize=auto;html=1;entryX=0;entryY=0.5;entryDx=0;entryDy=0;" edge="1" parent="1" source="FndXXYRwrVGlGgqWlBvR-53" target="FndXXYRwrVGlGgqWlBvR-54">
          <mxGeometry relative="1" as="geometry" />
        </mxCell>
        <mxCell id="FndXXYRwrVGlGgqWlBvR-53" value="a : 3&lt;div&gt;b : 2&lt;/div&gt;&lt;div&gt;c : 2&lt;/div&gt;" style="text;html=1;align=center;verticalAlign=middle;whiteSpace=wrap;rounded=0;fontColor=#000000;strokeColor=default;" vertex="1" parent="1">
          <mxGeometry x="520" y="550" width="80" height="50" as="geometry" />
        </mxCell>
        <mxCell id="FndXXYRwrVGlGgqWlBvR-54" value="c : 2" style="text;html=1;align=center;verticalAlign=middle;whiteSpace=wrap;rounded=0;fontColor=#000000;" vertex="1" parent="1">
          <mxGeometry x="740" y="560" width="80" height="30" as="geometry" />
        </mxCell>
        <mxCell id="FndXXYRwrVGlGgqWlBvR-55" style="edgeStyle=orthogonalEdgeStyle;rounded=0;orthogonalLoop=1;jettySize=auto;html=1;entryX=0;entryY=0.5;entryDx=0;entryDy=0;" edge="1" parent="1" source="FndXXYRwrVGlGgqWlBvR-56" target="FndXXYRwrVGlGgqWlBvR-58">
          <mxGeometry relative="1" as="geometry" />
        </mxCell>
        <mxCell id="FndXXYRwrVGlGgqWlBvR-56" value="voter6: d&lt;div&gt;(t=40)&lt;/div&gt;" style="text;html=1;align=center;verticalAlign=middle;whiteSpace=wrap;rounded=0;fontColor=#000000;" vertex="1" parent="1">
          <mxGeometry x="80" y="625" width="80" height="30" as="geometry" />
        </mxCell>
        <mxCell id="FndXXYRwrVGlGgqWlBvR-57" style="edgeStyle=orthogonalEdgeStyle;rounded=0;orthogonalLoop=1;jettySize=auto;html=1;" edge="1" parent="1" source="FndXXYRwrVGlGgqWlBvR-58" target="FndXXYRwrVGlGgqWlBvR-60">
          <mxGeometry relative="1" as="geometry" />
        </mxCell>
        <mxCell id="FndXXYRwrVGlGgqWlBvR-58" value="d" style="text;html=1;align=center;verticalAlign=middle;whiteSpace=wrap;rounded=0;fontColor=#000000;" vertex="1" parent="1">
          <mxGeometry x="320" y="625" width="80" height="30" as="geometry" />
        </mxCell>
        <mxCell id="FndXXYRwrVGlGgqWlBvR-59" style="edgeStyle=orthogonalEdgeStyle;rounded=0;orthogonalLoop=1;jettySize=auto;html=1;entryX=0;entryY=0.5;entryDx=0;entryDy=0;" edge="1" parent="1" source="FndXXYRwrVGlGgqWlBvR-60" target="FndXXYRwrVGlGgqWlBvR-61">
          <mxGeometry relative="1" as="geometry" />
        </mxCell>
        <mxCell id="FndXXYRwrVGlGgqWlBvR-60" value="a : 3&lt;div&gt;b : 2&lt;/div&gt;&lt;div&gt;c : 2&lt;/div&gt;&lt;div&gt;d : 1&lt;/div&gt;" style="text;html=1;align=center;verticalAlign=middle;whiteSpace=wrap;rounded=0;fontColor=#000000;strokeColor=default;" vertex="1" parent="1">
          <mxGeometry x="520" y="610" width="80" height="60" as="geometry" />
        </mxCell>
        <mxCell id="FndXXYRwrVGlGgqWlBvR-61" value="d : 1" style="text;html=1;align=center;verticalAlign=middle;whiteSpace=wrap;rounded=0;fontColor=#000000;" vertex="1" parent="1">
          <mxGeometry x="740" y="625" width="80" height="30" as="geometry" />
        </mxCell>
        <mxCell id="FndXXYRwrVGlGgqWlBvR-62" style="edgeStyle=orthogonalEdgeStyle;rounded=0;orthogonalLoop=1;jettySize=auto;html=1;entryX=0;entryY=0.5;entryDx=0;entryDy=0;" edge="1" parent="1" source="FndXXYRwrVGlGgqWlBvR-63" target="FndXXYRwrVGlGgqWlBvR-65">
          <mxGeometry relative="1" as="geometry" />
        </mxCell>
        <mxCell id="FndXXYRwrVGlGgqWlBvR-63" value="voter7: b&lt;div&gt;(t=40)&lt;/div&gt;" style="text;html=1;align=center;verticalAlign=middle;whiteSpace=wrap;rounded=0;fontColor=#000000;" vertex="1" parent="1">
          <mxGeometry x="80" y="695" width="80" height="30" as="geometry" />
        </mxCell>
        <mxCell id="FndXXYRwrVGlGgqWlBvR-64" style="edgeStyle=orthogonalEdgeStyle;rounded=0;orthogonalLoop=1;jettySize=auto;html=1;" edge="1" parent="1" source="FndXXYRwrVGlGgqWlBvR-65" target="FndXXYRwrVGlGgqWlBvR-67">
          <mxGeometry relative="1" as="geometry" />
        </mxCell>
        <mxCell id="FndXXYRwrVGlGgqWlBvR-65" value="b" style="text;html=1;align=center;verticalAlign=middle;whiteSpace=wrap;rounded=0;fontColor=#000000;" vertex="1" parent="1">
          <mxGeometry x="320" y="695" width="80" height="30" as="geometry" />
        </mxCell>
        <mxCell id="FndXXYRwrVGlGgqWlBvR-66" style="edgeStyle=orthogonalEdgeStyle;rounded=0;orthogonalLoop=1;jettySize=auto;html=1;entryX=0;entryY=0.5;entryDx=0;entryDy=0;" edge="1" parent="1" source="FndXXYRwrVGlGgqWlBvR-67" target="FndXXYRwrVGlGgqWlBvR-68">
          <mxGeometry relative="1" as="geometry" />
        </mxCell>
        <mxCell id="FndXXYRwrVGlGgqWlBvR-67" value="a : 3&lt;div&gt;b : 3&lt;/div&gt;&lt;div&gt;c : 2&lt;/div&gt;&lt;div&gt;d : 1&lt;/div&gt;" style="text;html=1;align=center;verticalAlign=middle;whiteSpace=wrap;rounded=0;fontColor=#000000;strokeColor=default;" vertex="1" parent="1">
          <mxGeometry x="520" y="680" width="80" height="60" as="geometry" />
        </mxCell>
        <mxCell id="FndXXYRwrVGlGgqWlBvR-68" value="b : 3" style="text;html=1;align=center;verticalAlign=middle;whiteSpace=wrap;rounded=0;fontColor=#000000;" vertex="1" parent="1">
          <mxGeometry x="740" y="695" width="80" height="30" as="geometry" />
        </mxCell>
        <mxCell id="FndXXYRwrVGlGgqWlBvR-69" style="edgeStyle=orthogonalEdgeStyle;rounded=0;orthogonalLoop=1;jettySize=auto;html=1;entryX=0;entryY=0.5;entryDx=0;entryDy=0;" edge="1" parent="1" source="FndXXYRwrVGlGgqWlBvR-70" target="FndXXYRwrVGlGgqWlBvR-72">
          <mxGeometry relative="1" as="geometry" />
        </mxCell>
        <mxCell id="FndXXYRwrVGlGgqWlBvR-70" value="voter7: null&lt;div&gt;(t=42)&lt;/div&gt;" style="text;html=1;align=center;verticalAlign=middle;whiteSpace=wrap;rounded=0;fontColor=#000000;" vertex="1" parent="1">
          <mxGeometry x="80" y="750" width="80" height="30" as="geometry" />
        </mxCell>
        <mxCell id="FndXXYRwrVGlGgqWlBvR-72" value="null" style="text;html=1;align=center;verticalAlign=middle;whiteSpace=wrap;rounded=0;fontColor=#000000;" vertex="1" parent="1">
          <mxGeometry x="320" y="750" width="80" height="30" as="geometry" />
        </mxCell>
        <mxCell id="FndXXYRwrVGlGgqWlBvR-76" style="edgeStyle=orthogonalEdgeStyle;rounded=0;orthogonalLoop=1;jettySize=auto;html=1;entryX=0;entryY=0.5;entryDx=0;entryDy=0;" edge="1" parent="1" source="FndXXYRwrVGlGgqWlBvR-77" target="FndXXYRwrVGlGgqWlBvR-78">
          <mxGeometry relative="1" as="geometry" />
        </mxCell>
        <mxCell id="FndXXYRwrVGlGgqWlBvR-77" value="null: d&lt;div&gt;(t=45)&lt;/div&gt;" style="text;html=1;align=center;verticalAlign=middle;whiteSpace=wrap;rounded=0;fontColor=#000000;" vertex="1" parent="1">
          <mxGeometry x="80" y="805" width="80" height="30" as="geometry" />
        </mxCell>
        <mxCell id="FndXXYRwrVGlGgqWlBvR-80" style="edgeStyle=orthogonalEdgeStyle;rounded=0;orthogonalLoop=1;jettySize=auto;html=1;entryX=0;entryY=0.5;entryDx=0;entryDy=0;" edge="1" parent="1" source="FndXXYRwrVGlGgqWlBvR-78" target="FndXXYRwrVGlGgqWlBvR-79">
          <mxGeometry relative="1" as="geometry" />
        </mxCell>
        <mxCell id="FndXXYRwrVGlGgqWlBvR-78" value="d" style="text;html=1;align=center;verticalAlign=middle;whiteSpace=wrap;rounded=0;fontColor=#000000;" vertex="1" parent="1">
          <mxGeometry x="320" y="805" width="80" height="30" as="geometry" />
        </mxCell>
        <mxCell id="FndXXYRwrVGlGgqWlBvR-82" style="edgeStyle=orthogonalEdgeStyle;rounded=0;orthogonalLoop=1;jettySize=auto;html=1;entryX=0;entryY=0.5;entryDx=0;entryDy=0;" edge="1" parent="1" source="FndXXYRwrVGlGgqWlBvR-79" target="FndXXYRwrVGlGgqWlBvR-81">
          <mxGeometry relative="1" as="geometry" />
        </mxCell>
        <mxCell id="FndXXYRwrVGlGgqWlBvR-79" value="a : 3&lt;div&gt;b : 3&lt;/div&gt;&lt;div&gt;c : 2&lt;/div&gt;&lt;div&gt;d : 2&lt;/div&gt;" style="text;html=1;align=center;verticalAlign=middle;whiteSpace=wrap;rounded=0;fontColor=#000000;strokeColor=default;" vertex="1" parent="1">
          <mxGeometry x="520" y="790" width="80" height="60" as="geometry" />
        </mxCell>
        <mxCell id="FndXXYRwrVGlGgqWlBvR-81" value="d : 2" style="text;html=1;align=center;verticalAlign=middle;whiteSpace=wrap;rounded=0;fontColor=#000000;" vertex="1" parent="1">
          <mxGeometry x="740" y="805" width="80" height="30" as="geometry" />
        </mxCell>
        <mxCell id="FndXXYRwrVGlGgqWlBvR-83" style="edgeStyle=orthogonalEdgeStyle;rounded=0;orthogonalLoop=1;jettySize=auto;html=1;entryX=0;entryY=0.5;entryDx=0;entryDy=0;" edge="1" parent="1" source="FndXXYRwrVGlGgqWlBvR-84" target="FndXXYRwrVGlGgqWlBvR-86">
          <mxGeometry relative="1" as="geometry" />
        </mxCell>
        <mxCell id="FndXXYRwrVGlGgqWlBvR-84" value="null: null&lt;div&gt;(t=48)&lt;/div&gt;" style="text;html=1;align=center;verticalAlign=middle;whiteSpace=wrap;rounded=0;fontColor=#000000;" vertex="1" parent="1">
          <mxGeometry x="80" y="865" width="80" height="30" as="geometry" />
        </mxCell>
        <mxCell id="FndXXYRwrVGlGgqWlBvR-86" value="null" style="text;html=1;align=center;verticalAlign=middle;whiteSpace=wrap;rounded=0;fontColor=#000000;" vertex="1" parent="1">
          <mxGeometry x="320" y="865" width="80" height="30" as="geometry" />
        </mxCell>
      </root>
    </mxGraphModel>
  </diagram>
</mxfile>
